<svg id="visual" viewBox="0 0 900 600" width="900" height="600" xmlns="http://www.w3.org/2000/svg" xmlns:xlink="http://www.w3.org/1999/xlink" version="1.1"><rect x="0" y="0" width="900" height="600" fill="#110e12"></rect><defs><linearGradient id="grad1_0" x1="33.3%" y1="0%" x2="100%" y2="100%"><stop offset="20%" stop-color="#d2afdd" stop-opacity="1"></stop><stop offset="80%" stop-color="#d2afdd" stop-opacity="1"></stop></linearGradient></defs><defs><linearGradient id="grad1_1" x1="33.3%" y1="0%" x2="100%" y2="100%"><stop offset="20%" stop-color="#d2afdd" stop-opacity="1"></stop><stop offset="80%" stop-color="#b395bc" stop-opacity="1"></stop></linearGradient></defs><defs><linearGradient id="grad1_2" x1="33.3%" y1="0%" x2="100%" y2="100%"><stop offset="20%" stop-color="#947d9d" stop-opacity="1"></stop><stop offset="80%" stop-color="#b395bc" stop-opacity="1"></stop></linearGradient></defs><defs><linearGradient id="grad1_3" x1="33.3%" y1="0%" x2="100%" y2="100%"><stop offset="20%" stop-color="#947d9d" stop-opacity="1"></stop><stop offset="80%" stop-color="#77657e" stop-opacity="1"></stop></linearGradient></defs><defs><linearGradient id="grad1_4" x1="33.3%" y1="0%" x2="100%" y2="100%"><stop offset="20%" stop-color="#5b4d61" stop-opacity="1"></stop><stop offset="80%" stop-color="#77657e" stop-opacity="1"></stop></linearGradient></defs><defs><linearGradient id="grad1_5" x1="33.3%" y1="0%" x2="100%" y2="100%"><stop offset="20%" stop-color="#5b4d61" stop-opacity="1"></stop><stop offset="80%" stop-color="#413745" stop-opacity="1"></stop></linearGradient></defs><defs><linearGradient id="grad1_6" x1="33.3%" y1="0%" x2="100%" y2="100%"><stop offset="20%" stop-color="#28232b" stop-opacity="1"></stop><stop offset="80%" stop-color="#413745" stop-opacity="1"></stop></linearGradient></defs><defs><linearGradient id="grad1_7" x1="33.3%" y1="0%" x2="100%" y2="100%"><stop offset="20%" stop-color="#28232b" stop-opacity="1"></stop><stop offset="80%" stop-color="#110e12" stop-opacity="1"></stop></linearGradient></defs><defs><linearGradient id="grad2_0" x1="0%" y1="0%" x2="66.7%" y2="100%"><stop offset="20%" stop-color="#d2afdd" stop-opacity="1"></stop><stop offset="80%" stop-color="#d2afdd" stop-opacity="1"></stop></linearGradient></defs><defs><linearGradient id="grad2_1" x1="0%" y1="0%" x2="66.7%" y2="100%"><stop offset="20%" stop-color="#b395bc" stop-opacity="1"></stop><stop offset="80%" stop-color="#d2afdd" stop-opacity="1"></stop></linearGradient></defs><defs><linearGradient id="grad2_2" x1="0%" y1="0%" x2="66.7%" y2="100%"><stop offset="20%" stop-color="#b395bc" stop-opacity="1"></stop><stop offset="80%" stop-color="#947d9d" stop-opacity="1"></stop></linearGradient></defs><defs><linearGradient id="grad2_3" x1="0%" y1="0%" x2="66.7%" y2="100%"><stop offset="20%" stop-color="#77657e" stop-opacity="1"></stop><stop offset="80%" stop-color="#947d9d" stop-opacity="1"></stop></linearGradient></defs><defs><linearGradient id="grad2_4" x1="0%" y1="0%" x2="66.7%" y2="100%"><stop offset="20%" stop-color="#77657e" stop-opacity="1"></stop><stop offset="80%" stop-color="#5b4d61" stop-opacity="1"></stop></linearGradient></defs><defs><linearGradient id="grad2_5" x1="0%" y1="0%" x2="66.7%" y2="100%"><stop offset="20%" stop-color="#413745" stop-opacity="1"></stop><stop offset="80%" stop-color="#5b4d61" stop-opacity="1"></stop></linearGradient></defs><defs><linearGradient id="grad2_6" x1="0%" y1="0%" x2="66.7%" y2="100%"><stop offset="20%" stop-color="#413745" stop-opacity="1"></stop><stop offset="80%" stop-color="#28232b" stop-opacity="1"></stop></linearGradient></defs><defs><linearGradient id="grad2_7" x1="0%" y1="0%" x2="66.7%" y2="100%"><stop offset="20%" stop-color="#110e12" stop-opacity="1"></stop><stop offset="80%" stop-color="#28232b" stop-opacity="1"></stop></linearGradient></defs><g transform="translate(900, 0)"><path d="M0 243.4C-30.4 216.3 -60.7 189.2 -99.5 172.3C-138.3 155.4 -185.4 148.7 -210.8 121.7C-236.1 94.7 -239.8 47.3 -243.4 0L0 0Z" fill="#1d191e"></path><path d="M0 213C-26.6 189.3 -53.2 165.6 -87.1 150.8C-121 136 -162.2 130.1 -184.4 106.5C-206.6 82.8 -209.8 41.4 -213 0L0 0Z" fill="#342d37"></path><path d="M0 182.5C-22.8 162.2 -45.6 141.9 -74.6 129.3C-103.7 116.6 -139 111.5 -158.1 91.3C-177.1 71 -179.8 35.5 -182.5 0L0 0Z" fill="#4e4252"></path><path d="M0 152.1C-19 135.2 -38 118.3 -62.2 107.7C-86.4 97.2 -115.9 92.9 -131.7 76.1C-147.6 59.2 -149.8 29.6 -152.1 0L0 0Z" fill="#69596f"></path><path d="M0 121.7C-15.2 108.2 -30.4 94.6 -49.7 86.2C-69.1 77.7 -92.7 74.4 -105.4 60.8C-118.1 47.3 -119.9 23.7 -121.7 0L0 0Z" fill="#86708d"></path><path d="M0 91.3C-11.4 81.1 -22.8 71 -37.3 64.6C-51.8 58.3 -69.5 55.8 -79 45.6C-88.6 35.5 -89.9 17.7 -91.3 0L0 0Z" fill="#a389ac"></path><path d="M0 60.8C-7.6 54.1 -15.2 47.3 -24.9 43.1C-34.6 38.9 -46.3 37.2 -52.7 30.4C-59 23.7 -59.9 11.8 -60.8 0L0 0Z" fill="#c2a2cd"></path><path d="M0 30.4C-3.8 27 -7.6 23.7 -12.4 21.5C-17.3 19.4 -23.2 18.6 -26.3 15.2C-29.5 11.8 -30 5.9 -30.4 0L0 0Z" fill="#d2afdd"></path></g><g transform="translate(0, 600)"><path d="M0 -243.4C43.1 -237.3 86.1 -231.2 121.7 -210.8C157.3 -190.3 185.3 -155.5 204.4 -118C223.4 -80.5 233.4 -40.2 243.4 0L0 0Z" fill="#1d191e"></path><path d="M0 -213C37.7 -207.6 75.4 -202.3 106.5 -184.4C137.6 -166.5 162.2 -136.1 178.8 -103.3C195.5 -70.4 204.2 -35.2 213 0L0 0Z" fill="#342d37"></path><path d="M0 -182.5C32.3 -178 64.6 -173.4 91.3 -158.1C117.9 -142.7 139 -116.6 153.3 -88.5C167.6 -60.4 175 -30.2 182.5 0L0 0Z" fill="#4e4252"></path><path d="M0 -152.1C26.9 -148.3 53.8 -144.5 76.1 -131.7C98.3 -119 115.8 -97.2 127.7 -73.8C139.6 -50.3 145.9 -25.1 152.1 0L0 0Z" fill="#69596f"></path><path d="M0 -121.7C21.5 -118.6 43.1 -115.6 60.8 -105.4C78.6 -95.2 92.7 -77.8 102.2 -59C111.7 -40.2 116.7 -20.1 121.7 0L0 0Z" fill="#86708d"></path><path d="M0 -91.3C16.1 -89 32.3 -86.7 45.6 -79C59 -71.4 69.5 -58.3 76.6 -44.3C83.8 -30.2 87.5 -15.1 91.3 0L0 0Z" fill="#a389ac"></path><path d="M0 -60.8C10.8 -59.3 21.5 -57.8 30.4 -52.7C39.3 -47.6 46.3 -38.9 51.1 -29.5C55.9 -20.1 58.3 -10.1 60.8 0L0 0Z" fill="#c2a2cd"></path><path d="M0 -30.4C5.4 -29.7 10.8 -28.9 15.2 -26.3C19.7 -23.8 23.2 -19.4 25.5 -14.8C27.9 -10.1 29.2 -5 30.4 0L0 0Z" fill="#d2afdd"></path></g></svg>